HIERARCHY
ROOT hip
{
  OFFSET 0 0 0
  CHANNELS 6 Xposition Yposition Zposition Zrotation Yrotation Xrotation
  JOINT abdomen
  {
    OFFSET 0 20.6881 -0.73152
    CHANNELS 3 Zrotation Xrotation Yrotation
    JOINT chest
    {
      OFFSET 0 11.7043 -0.48768
      CHANNELS 3 Zrotation Xrotation Yrotation
      JOINT neck
      {
        OFFSET 0 22.1894 -2.19456
        CHANNELS 3 Zrotation Xrotation Yrotation
        JOINT head
        {
          OFFSET -0.24384 7.07133 1.2192
          CHANNELS 3 Zrotation Xrotation Yrotation
          JOINT leftEye
          {
            OFFSET 4.14528 8.04674 8.04672
            CHANNELS 3 Zrotation Xrotation Yrotation
            End Site
            {
              OFFSET 1 0 0
            }
          }
          JOINT rightEye
          {
            OFFSET -3.6576 8.04674 8.04672
            CHANNELS 3 Zrotation Xrotation Yrotation
            End Site
            {
              OFFSET 1 0 0
            }
          }
        }
      }
      JOINT rCollar
      {
        OFFSET -2.68224 19.2634 -4.8768
        CHANNELS 3 Zrotation Xrotation Yrotation
        JOINT rShldr
        {
          OFFSET -8.77824 -1.95073 1.46304
          CHANNELS 3 Zrotation Xrotation Yrotation
          JOINT rForeArm
          {
            OFFSET -28.1742 -1.7115 0.48768
            CHANNELS 3 Zrotation Xrotation Yrotation
            JOINT rHand
            {
              OFFSET -22.5879 0.773209 7.07136
              CHANNELS 3 Zrotation Xrotation Yrotation
              JOINT rThumb1
              {
                OFFSET -1.2192 -0.487915 3.41376
                CHANNELS 3 Zrotation Xrotation Yrotation
                JOINT rThumb2
                {
                  OFFSET -3.37035 -0.52449 3.41376
                  CHANNELS 3 Zrotation Xrotation Yrotation
                  End Site
                  {
                    OFFSET -1.78271 -1.18214 1.43049
                  }
                }
              }
              JOINT rIndex1
              {
                OFFSET -7.75947 0.938293 5.60832
                CHANNELS 3 Zrotation Xrotation Yrotation
                JOINT rIndex2
                {
                  OFFSET -2.54057 -0.884171 1.56538
                  CHANNELS 3 Zrotation Xrotation Yrotation
                  End Site
                  {
                    OFFSET -1.62519 -0.234802 1.16502
                  }
                }
              }
              JOINT rMid1
              {
                OFFSET -8.24714 1.18213 3.41376
                CHANNELS 3 Zrotation Xrotation Yrotation
                JOINT rMid2
                {
                  OFFSET -3.10165 -0.590103 1.0647
                  CHANNELS 3 Zrotation Xrotation Yrotation
                  End Site
                  {
                    OFFSET -2.48547 -0.328903 0.83742
                  }
                }
              }
              JOINT rRing1
              {
                OFFSET -8.82822 0.546677 1.51678
                CHANNELS 3 Zrotation Xrotation Yrotation
                JOINT rRing2
                {
                  OFFSET -2.60934 -0.819778 -0.0198488
                  CHANNELS 3 Zrotation Xrotation Yrotation
                  End Site
                  {
                    OFFSET -2.33842 -0.294052 0.168128
                  }
                }
              }
              JOINT rPinky1
              {
                OFFSET -8.27202 -0.0477905 -0.4584
                CHANNELS 3 Zrotation Xrotation Yrotation
                JOINT rPinky2
                {
                  OFFSET -1.82734 -0.647385 -0.700984
                  CHANNELS 3 Zrotation Xrotation Yrotation
                  End Site
                  {
                    OFFSET -1.69225 -0.51767 -0.607171
                  }
                }
              }
            }
          }
        }
      }
      JOINT lCollar
      {
        OFFSET 2.68224 19.2634 -4.8768
        CHANNELS 3 Zrotation Xrotation Yrotation
        JOINT lShldr
        {
          OFFSET 8.77824 -1.95073 1.46304
          CHANNELS 3 Zrotation Xrotation Yrotation
          JOINT lForeArm
          {
            OFFSET 28.1742 -1.7115 0.48768
            CHANNELS 3 Zrotation Xrotation Yrotation
            JOINT lHand
            {
              OFFSET 22.5879 0.773209 7.07136
              CHANNELS 3 Zrotation Xrotation Yrotation
              JOINT lThumb1
              {
                OFFSET 1.2192 -0.487915 3.41376
                CHANNELS 3 Zrotation Xrotation Yrotation
                JOINT lThumb2
                {
                  OFFSET 3.37035 -0.52449 3.41376
                  CHANNELS 3 Zrotation Xrotation Yrotation
                  End Site
                  {
                    OFFSET 1.78271 -1.18214 1.43049
                  }
                }
              }
              JOINT lIndex1
              {
                OFFSET 7.75947 0.938293 5.60832
                CHANNELS 3 Zrotation Xrotation Yrotation
                JOINT lIndex2
                {
                  OFFSET 2.54057 -0.884171 1.56538
                  CHANNELS 3 Zrotation Xrotation Yrotation
                  End Site
                  {
                    OFFSET 1.62519 -0.234802 1.16502
                  }
                }
              }
              JOINT lMid1
              {
                OFFSET 8.24714 1.18213 3.41376
                CHANNELS 3 Zrotation Xrotation Yrotation
                JOINT lMid2
                {
                  OFFSET 3.10165 -0.590103 1.0647
                  CHANNELS 3 Zrotation Xrotation Yrotation
                  End Site
                  {
                    OFFSET 2.48547 -0.328903 0.83742
                  }
                }
              }
              JOINT lRing1
              {
                OFFSET 8.82822 0.546677 1.51678
                CHANNELS 3 Zrotation Xrotation Yrotation
                JOINT lRing2
                {
                  OFFSET 2.60934 -0.819778 -0.0198488
                  CHANNELS 3 Zrotation Xrotation Yrotation
                  End Site
                  {
                    OFFSET 2.33842 -0.294052 0.168128
                  }
                }
              }
              JOINT lPinky1
              {
                OFFSET 8.27202 -0.0477905 -0.4584
                CHANNELS 3 Zrotation Xrotation Yrotation
                JOINT lPinky2
                {
                  OFFSET 1.82734 -0.647385 -0.700984
                  CHANNELS 3 Zrotation Xrotation Yrotation
                  End Site
                  {
                    OFFSET 1.69225 -0.51767 -0.607171
                  }
                }
              }
            }
          }
        }
      }
    }
  }
  JOINT rButtock
  {
    OFFSET -8.77824 4.35084 1.2192
    CHANNELS 3 Zrotation Xrotation Yrotation
    JOINT rThigh
    {
      OFFSET 0 -1.70687 -2.19456
      CHANNELS 3 Zrotation Xrotation Yrotation
      JOINT rShin
      {
        OFFSET 0 -36.8199 0.73152
        CHANNELS 3 Zrotation Xrotation Yrotation
        JOINT rFoot
        {
          OFFSET 0.73152 -45.1104 -5.12064
          CHANNELS 3 Zrotation Xrotation Yrotation
          End Site
          {
            OFFSET -1.1221 -3.69964 12.103
          }
        }
      }
    }
  }
  JOINT lButtock
  {
    OFFSET 8.77824 4.35084 1.2192
    CHANNELS 3 Zrotation Xrotation Yrotation
    JOINT lThigh
    {
      OFFSET 0 -1.70687 -2.19456
      CHANNELS 3 Zrotation Xrotation Yrotation
      JOINT lShin
      {
        OFFSET 0 -36.8199 0.73152
        CHANNELS 3 Zrotation Xrotation Yrotation
        JOINT lFoot
        {
          OFFSET -0.73152 -45.1104 -5.12064
          CHANNELS 3 Zrotation Xrotation Yrotation
          End Site
          {
            OFFSET 1.1221 -3.69964 12.103
          }
        }
      }
    }
  }
}
MOTION
Frames:	9
Frame Time:	0.00833333
12.4086 41.3221 48.7906 186.355 -4.7134 -170.15 5.44843 66.1059 -3.48252 5.43755 -1.12901 -5.30035 -1.17878 -12.5465 1.84475 2.75184 4.89581 4.48146 -0.0 0.0 0.0 -0.0 0.0 0.0 -7.64385e-15 7.77286e-14 1.90709e-14 28.2224 14.9588 61.3634 -12.291 -5.65454 22.1758 -1.23703 29.8898 4.63324 -3.18493e-10 1.05295e-10 -4.64987e-10 -5.59396e-10 1.80936e-10 -7.95083e-10 -3.18487e-10 1.05297e-10 -4.64997e-10 7.73091 5.47488 0.417314 -3.18494e-10 1.05293e-10 -4.64989e-10 2.90554 0.965183 0.102902 -3.18487e-10 1.05296e-10 -4.64991e-10 10.2786 0.731801 0.0259123 -3.185e-10 1.05297e-10 -4.64982e-10 2.22167 -0.733487 -0.20892 -7.71272e-15 7.7721e-14 1.88162e-14 -53.5496 6.98143 -50.2549 7.99589 -3.00665 -14.101 5.68164 54.0234 -11.1441 -9.40218e-11 -1.38639e-10 -2.0665e-10 -1.56247e-10 -2.12259e-10 -3.52742e-10 -9.40263e-11 -1.38636e-10 -2.06637e-10 -7.73091 5.47488 -0.417314 -9.40214e-11 -1.38638e-10 -2.06642e-10 -2.90554 0.965183 -0.102902 -9.40282e-11 -1.38638e-10 -2.06646e-10 -10.2786 0.731801 -0.0259123 -9.40174e-11 -1.38639e-10 -2.06652e-10 -2.22167 -0.733487 0.20892 -2.03217e-16 0.0 -3.88251e-19 -176.622 -62.0062 171.238 -175.305 72.1896 175.285 -9.44588 -3.24232 -28.6027 2.03217e-16 0.0 3.88251e-19 123.872 -82.5423 129.84 177.421 47.5979 -178.388 11.1285 8.69453 40.3309
12.4277 40.9705 48.122 186.451 -4.5896 -170.632 6.13864 65.8369 -4.32944 5.01134 -1.29279 -5.36068 -1.09185 -12.5383 2.00115 3.1763 5.51668 4.77868 -0.0 0.0 0.0 -0.0 0.0 0.0 5.135e-14 2.60959e-13 1.51365e-13 27.8288 15.5863 61.0957 -12.6762 -5.93275 22.9301 -1.16611 29.1101 4.48839 5.62538e-10 2.26642e-10 -1.20015e-09 9.44192e-10 3.99476e-10 -2.08706e-09 5.62543e-10 2.26645e-10 -1.20016e-09 7.73091 5.47488 0.417314 5.62536e-10 2.2664e-10 -1.20016e-09 2.90554 0.965183 0.102902 5.62541e-10 2.26643e-10 -1.20016e-09 10.2786 0.731801 0.0259123 5.62531e-10 2.26645e-10 -1.20016e-09 2.22167 -0.733487 -0.20892 5.13195e-14 2.6095e-13 1.51173e-13 -51.8284 8.74324 -49.0483 8.55289 -3.30066 -15.1269 4.96055 51.6868 -10.2354 7.92741e-11 -1.86751e-11 -2.04969e-09 6.15523e-11 -3.37979e-11 -3.52982e-09 7.92677e-11 -1.86718e-11 -2.04968e-09 -7.73091 5.47488 -0.417314 7.92741e-11 -1.86744e-11 -2.04968e-09 -2.90554 0.965183 -0.102902 7.92647e-11 -1.86744e-11 -2.04968e-09 -10.2786 0.731801 -0.0259123 7.92784e-11 -1.86757e-11 -2.04969e-09 -2.22167 -0.733487 0.20892 -2.03217e-16 0.0 -3.88251e-19 -176.891 -62.068 171.139 -174.706 74.5522 174.556 -8.70376 -2.63033 -28.1482 2.03217e-16 0.0 3.88251e-19 120.278 -82.0812 126.292 177.444 46.6106 -178.396 10.8899 9.57546 40.2851
12.4508 40.6178 47.4636 186.501 -4.4992 -171.048 6.66684 65.555 -4.85456 4.73013 -1.31671 -5.39205 -1.00276 -12.6455 2.08182 3.47939 6.03465 4.9122 -0.0 0.0 0.0 -0.0 0.0 0.0 7.99182e-14 3.56227e-13 2.14538e-13 27.5111 15.9332 60.7028 -13.0833 -6.23796 23.7271 -1.09403 28.2931 4.33866 1.08806e-09 2.52384e-10 -1.51063e-09 1.8436e-09 4.49107e-10 -2.63652e-09 1.08806e-09 2.52386e-10 -1.51064e-09 7.73091 5.47488 0.417314 1.08805e-09 2.52381e-10 -1.51063e-09 2.90554 0.965183 0.102902 1.08806e-09 2.52384e-10 -1.51063e-09 10.2786 0.731801 0.0259123 1.08805e-09 2.52387e-10 -1.51063e-09 2.22167 -0.733487 -0.20892 7.991e-14 3.56218e-13 2.14389e-13 -50.4415 10.4096 -48.0982 9.18082 -3.6582 -16.2739 4.39629 49.5861 -9.50034 1.68662e-10 6.85664e-11 -2.95002e-09 1.73971e-10 9.86894e-11 -5.08168e-09 1.68655e-10 6.85696e-11 -2.95001e-09 -7.73091 5.47488 -0.417314 1.68662e-10 6.85669e-11 -2.95001e-09 -2.90554 0.965183 -0.102902 1.68651e-10 6.8567e-11 -2.95002e-09 -10.2786 0.731801 -0.0259123 1.68667e-10 6.85652e-11 -2.95002e-09 -2.22167 -0.733487 0.20892 -2.03217e-16 0.0 -3.88251e-19 -177.125 -62.1625 171.095 -173.952 76.7186 173.689 -8.05332 -2.1375 -27.655 2.03217e-16 0.0 3.88251e-19 117.264 -81.5513 123.277 177.459 45.6585 -178.374 10.5508 10.522 40.1234
12.4718 40.2686 46.8074 186.512 -4.4456 -171.421 6.98642 65.2485 -4.93506 4.65007 -1.11724 -5.38633 -0.908213 -12.92 2.0611 3.62263 6.42501 4.82389 -0.0 0.0 0.0 -0.0 0.0 0.0 6.42902e-14 3.19538e-13 1.74675e-13 27.2473 15.8774 60.1307 -13.5151 -6.5719 24.5792 -1.02017 27.4251 4.18182 1.06249e-09 1.09622e-10 -1.1596e-09 1.80649e-09 2.01415e-10 -2.02968e-09 1.06249e-09 1.09623e-10 -1.1596e-09 7.73091 5.47488 0.417314 1.06249e-09 1.09618e-10 -1.15959e-09 2.90554 0.965183 0.102902 1.06249e-09 1.09622e-10 -1.1596e-09 10.2786 0.731801 0.0259123 1.06248e-09 1.09625e-10 -1.15959e-09 2.22167 -0.733487 -0.20892 6.42843e-14 3.1953e-13 1.74541e-13 -49.407 11.9515 -47.4793 9.89755 -4.09 -17.5933 3.95111 47.7673 -8.90757 1.39076e-10 1.06985e-10 -2.40121e-09 1.41378e-10 1.624e-10 -4.13545e-09 1.39068e-10 1.06987e-10 -2.4012e-09 -7.73091 5.47488 -0.417314 1.39076e-10 1.06985e-10 -2.4012e-09 -2.90554 0.965183 -0.102902 1.39065e-10 1.06985e-10 -2.4012e-09 -10.2786 0.731801 -0.0259123 1.3908e-10 1.06983e-10 -2.40121e-09 -2.22167 -0.733487 0.20892 -2.03217e-16 0.0 -3.88251e-19 -177.319 -62.2948 171.1 -173.027 78.6896 172.672 -7.5521 -1.89529 -27.0937 2.03217e-16 0.0 3.88251e-19 114.913 -80.9432 120.861 177.467 44.7386 -178.315 10.0732 11.5889 39.8173
12.4972 39.9284 46.1486 186.496 -4.4262 -171.773 7.17665 64.9192 -4.74914 4.66578 -0.795028 -5.35335 -0.799657 -13.3344 1.97549 3.68377 6.75399 4.58729 -0.0 0.0 0.0 -0.0 0.0 0.0 2.34896e-14 2.00278e-13 7.23172e-14 27.033 15.5697 59.4568 -13.9682 -6.93044 25.4876 -0.944924 26.4904 4.01597 7.12796e-10 -1.41697e-10 -3.99701e-10 1.21893e-09 -2.37521e-10 -7.08502e-10 7.128e-10 -1.41699e-10 -3.99707e-10 7.73091 5.47488 0.417314 7.12794e-10 -1.41703e-10 -3.99693e-10 2.90554 0.965183 0.102902 7.12797e-10 -1.41698e-10 -3.997e-10 10.2786 0.731801 0.0259123 7.12785e-10 -1.41695e-10 -3.99691e-10 2.22167 -0.733487 -0.20892 2.34749e-14 2.00273e-13 7.21837e-14 -48.4905 13.4671 -47.0713 10.692 -4.5843 -19.0909 3.55948 46.0191 -8.373 4.71891e-11 1.21568e-10 -9.56898e-10 3.79908e-11 1.93422e-10 -1.64593e-09 4.71824e-11 1.21569e-10 -9.5689e-10 -7.73091 5.47488 -0.417314 4.71892e-11 1.21567e-10 -9.56899e-10 -2.90554 0.965183 -0.102902 4.71804e-11 1.21568e-10 -9.56896e-10 -10.2786 0.731801 -0.0259123 4.71942e-11 1.21567e-10 -9.56905e-10 -2.22167 -0.733487 0.20892 -2.03217e-16 0.0 -3.88251e-19 -177.47 -62.4598 171.156 -171.857 80.5051 171.422 -7.13301 -1.78971 -26.4593 2.03217e-16 0.0 3.88251e-19 113.167 -80.2592 119.02 177.471 43.8502 -178.229 9.49937 12.7656 39.4109
12.5217 39.599 45.4802 186.451 -4.4513 -172.106 7.32296 64.5998 -4.47627 4.72995 -0.462513 -5.30412 -0.692926 -13.7924 1.85503 3.70689 7.02887 4.27576 -0.0 0.0 0.0 -0.0 0.0 0.0 -2.57677e-14 6.0394e-14 -4.66309e-14 26.8983 15.127 58.7334 -14.4304 -7.30721 26.4252 -0.871993 25.5314 3.84889 3.08794e-10 -3.82514e-10 4.25723e-10 5.3913e-10 -6.58331e-10 7.27431e-10 3.08798e-10 -3.82518e-10 4.25719e-10 7.73091 5.47488 0.417314 3.08792e-10 -3.8252e-10 4.25734e-10 2.90554 0.965183 0.102902 3.08797e-10 -3.82515e-10 4.25728e-10 10.2786 0.731801 0.0259123 3.08782e-10 -3.82512e-10 4.25741e-10 2.22167 -0.733487 -0.20892 -2.58e-14 6.03924e-14 -4.67719e-14 -47.7411 14.858 -46.7589 11.5046 -5.1124 -20.6511 3.2305 44.4067 -7.91019 -7.06021e-11 1.29801e-10 6.58653e-10 -1.02683e-10 2.15997e-10 1.13902e-09 -7.06079e-11 1.29802e-10 6.58661e-10 -7.73091 5.47488 -0.417314 -7.06018e-11 1.29799e-10 6.58648e-10 -2.90554 0.965183 -0.102902 -7.06087e-11 1.29801e-10 6.58655e-10 -10.2786 0.731801 -0.0259123 -7.05965e-11 1.298e-10 6.58646e-10 -2.22167 -0.733487 0.20892 -2.03217e-16 0.0 -3.88251e-19 -177.593 -62.6501 171.277 -170.35 82.1325 169.842 -6.70872 -1.61482 -25.816 2.03217e-16 0.0 3.88251e-19 111.7 -79.5453 117.441 177.474 43.0 -178.13 8.90918 13.957 38.9409
12.5456 39.2745 44.797 186.372 -4.5239 -172.419 7.50041 64.3238 -4.28648 4.79577 -0.232182 -5.24948 -0.602469 -14.1979 1.72996 3.7342 7.25689 3.96288 -0.0 0.0 0.0 -0.0 0.0 0.0 -6.67656e-14 -3.81669e-14 -1.36267e-13 26.8795 14.6751 58.0073 -14.8912 -7.69648 27.3649 -0.804003 24.5909 3.68768 1.20301e-10 -4.93768e-10 9.73339e-10 2.25274e-10 -8.51641e-10 1.67856e-09 1.20305e-10 -4.93773e-10 9.73336e-10 7.73091 5.47488 0.417314 1.203e-10 -4.93775e-10 9.73352e-10 2.90554 0.965183 0.102902 1.20305e-10 -4.93769e-10 9.73347e-10 10.2786 0.731801 0.0259123 1.20289e-10 -4.93766e-10 9.73361e-10 2.22167 -0.733487 -0.20892 -6.68221e-14 -3.81669e-14 -1.36416e-13 -47.2176 16.0311 -46.4164 12.2823 -5.64861 -22.1576 2.96928 42.9959 -7.52956 -1.77903e-10 1.4917e-10 1.72119e-09 -2.47135e-10 2.54365e-10 2.97155e-09 -1.77908e-10 1.49169e-10 1.7212e-09 -7.73091 5.47488 -0.417314 -1.77902e-10 1.49167e-10 1.72119e-09 -2.90554 0.965183 -0.102902 -1.77908e-10 1.49169e-10 1.72119e-09 -10.2786 0.731801 -0.0259123 -1.77897e-10 1.49168e-10 1.72119e-09 -2.22167 -0.733487 0.20892 -2.03217e-16 0.0 -3.88251e-19 -177.703 -62.8585 171.476 -168.398 83.5388 167.819 -6.20005 -1.16079 -25.2296 2.03217e-16 0.0 3.88251e-19 110.231 -78.8419 115.856 177.476 42.1948 -178.032 8.37709 15.063 38.4381
12.5661 38.952 44.0974 186.254 -4.6401 -172.702 7.7327 64.1066 -4.20343 4.8741 -0.141998 -5.18631 -0.532362 -14.5493 1.6 3.75158 7.43482 3.65026 -0.0 0.0 0.0 -0.0 0.0 0.0 -1.06684e-13 -7.97128e-14 -1.91105e-13 26.9855 14.2386 57.2496 -15.3685 -8.1169 28.3414 -0.734637 23.5989 3.51973 2.7614e-10 -3.42879e-10 1.10874e-09 4.96721e-10 -5.8557e-10 1.90978e-09 2.76144e-10 -3.42883e-10 1.10873e-09 7.73091 5.47488 0.417314 2.76138e-10 -3.42884e-10 1.10875e-09 2.90554 0.965183 0.102902 2.76145e-10 -3.4288e-10 1.10875e-09 10.2786 0.731801 0.0259123 2.7613e-10 -3.42878e-10 1.10876e-09 2.22167 -0.733487 -0.20892 -1.0678e-13 -7.97131e-14 -1.91261e-13 -47.0121 16.9413 -45.9721 13.0408 -6.21016 -23.6307 2.77272 41.8528 -7.23523 -2.96677e-10 1.97432e-10 2.02628e-09 -4.41868e-10 3.37349e-10 3.50043e-09 -2.96682e-10 1.97432e-10 2.02629e-09 -7.73091 5.47488 -0.417314 -2.96677e-10 1.9743e-10 2.02627e-09 -2.90554 0.965183 -0.102902 -2.96681e-10 1.97431e-10 2.02628e-09 -10.2786 0.731801 -0.0259123 -2.96671e-10 1.97431e-10 2.02627e-09 -2.22167 -0.733487 0.20892 -2.03217e-16 0.0 -3.88251e-19 -177.811 -63.1185 171.762 -165.829 84.7545 165.183 -5.62186 -0.414135 -24.746 2.03217e-16 0.0 3.88251e-19 108.854 -78.1471 114.35 177.475 41.428 -177.932 7.90636 16.0787 37.8755
12.5834 38.6279 43.3789 186.085 -4.7948 -172.946 7.97648 63.9283 -4.14172 4.98236 -0.129332 -5.11076 -0.475312 -14.8899 1.45165 3.74414 7.56031 3.30468 -0.0 0.0 0.0 -0.0 0.0 0.0 -1.50558e-13 -9.70065e-14 -2.33376e-13 27.1921 13.747 56.4527 -15.8572 -8.56164 29.3563 -0.665787 22.5597 3.34643 6.13449e-10 -2.6955e-11 1.02932e-09 1.07671e-09 -3.04657e-11 1.76592e-09 6.13454e-10 -2.69582e-11 1.02931e-09 7.73091 5.47488 0.417314 6.13448e-10 -2.69583e-11 1.02933e-09 2.90554 0.965183 0.102902 6.13457e-10 -2.69551e-11 1.02932e-09 10.2786 0.731801 0.0259123 6.13444e-10 -2.69544e-11 1.02933e-09 2.22167 -0.733487 -0.20892 -1.50707e-13 -9.70083e-14 -2.33541e-13 -47.0621 17.6333 -45.4847 13.7933 -6.7983 -25.1173 2.61849 40.928 -7.00222 -4.3578e-10 2.60898e-10 1.96395e-09 -6.86273e-10 4.44568e-10 3.39735e-09 -4.35785e-10 2.60898e-10 1.96397e-09 -7.73091 5.47488 -0.417314 -4.35779e-10 2.60897e-10 1.96395e-09 -2.90554 0.965183 -0.102902 -4.35782e-10 2.60897e-10 1.96395e-09 -10.2786 0.731801 -0.0259123 -4.35773e-10 2.60898e-10 1.96394e-09 -2.22167 -0.733487 0.20892 -2.03217e-16 0.0 -3.88251e-19 -177.901 -63.4216 172.131 -162.482 85.7814 161.773 -5.01089 0.530147 -24.3257 2.03217e-16 0.0 3.88251e-19 107.62 -77.4445 112.972 177.472 40.6988 -177.824 7.46617 17.0496 37.2421
